<?xml version="1.0" encoding="UTF-8"?>
<svg width="2000px" height="2000px" viewBox="0 0 2000 2000" version="1.1" xmlns="http://www.w3.org/2000/svg" xmlns:xlink="http://www.w3.org/1999/xlink">
    <!-- Generator: Sketch 45.2 (43514) - http://www.bohemiancoding.com/sketch -->
    <title>Good Lettuce</title>
    <desc>Created with Sketch.</desc>
    <defs></defs>
    <g id="Page-1" stroke="none" stroke-width="1" fill="none" fill-rule="evenodd">
        <g id="Good-Lettuce" fill-rule="nonzero">
            <g id="lettuce">
                <ellipse id="Oval" fill-opacity="0.15" fill="#000000" cx="573.889686" cy="708.605389" rx="450.889686" ry="238.672455"></ellipse>
                <path d="M670.381367,13.3361588 C568.992704,-16.9829192 472.84214,10.3735473 411.723192,37.4088372 L345.011877,73.8828283 L345.01577,73.9100797 C367.027078,94.7709913 402.175486,109.227835 443.387319,134.795445 C502.803058,137.014483 562.726839,161.153344 603.062736,198.727122 C623.030193,217.328117 642.148964,250.006384 654.7897,274.396346 C707.326417,253.566579 778.427147,236.398226 838.531955,238.646462 C866.962904,239.711212 887.751794,227.568787 914.3861,233.986481 C938.585302,41.7826796 812.767746,55.9183463 670.381367,13.3361588 Z" id="Shape" fill="#BCC449"></path>
                <path d="M69.0413059,204.142355 L44.6299321,248.799538 C116.182256,253.967563 232.243827,366.264554 225.31225,313.287922 C232.574736,368.789198 235.893562,325.445919 235.052663,325.187031 C268.772321,229.392681 352.050513,119.059734 458.869981,123.052057 C243.847064,-10.3316423 118.350685,127.091097 69.0413059,204.142355 Z" id="Shape" fill="#D3D13E"></path>
                <path d="M596.493213,189.582346 C591.957809,189.582346 587.449657,187.694216 584.241783,183.999711 C578.36133,177.237482 579.079598,166.989027 585.841827,161.11052 C588.333379,158.942091 648.323343,108.081331 771.738886,114.70925 C780.687063,115.190042 787.554404,122.830154 787.075559,131.782223 C786.592821,140.7304 778.970228,147.547132 770.002586,147.11695 C659.566473,141.218978 607.64291,185.15984 607.130974,185.603648 C604.061304,188.274281 600.269472,189.582346 596.493213,189.582346 Z" id="Shape" fill="#F8E71C"></path>
                <path d="M478.76931,452.275668 C526.104912,373.630206 614.833375,298.901153 661.466281,251.633679 C623.285188,177.981055 547.695771,126.374776 458.869981,123.052057 C352.050513,119.055841 259.033854,186.059135 225.31225,281.853485 C369.189668,359.80209 466.151933,537.613283 478.76931,452.275668 Z" id="Shape" fill="#E0DB46"></path>
                <path d="M340.414184,288.777275 C336.805326,288.777275 333.175057,287.580162 330.165729,285.123647 C323.220526,279.459258 322.184975,269.236108 327.853256,262.292852 C349.066489,236.298953 387.802343,204.181285 451.870276,198.78941 C460.8204,198.034159 468.651271,204.667917 469.40263,213.598575 C470.153989,222.529233 463.522177,230.375676 454.591519,231.127035 C412.258487,234.68723 378.075556,252.077487 352.99847,282.811175 C349.786704,286.739263 345.120882,288.777275 340.414184,288.777275 Z" id="Shape" fill="#A0C638"></path>
                <path d="M478.453022,866.756637 C476.908251,866.834 475.344917,866.842995 473.790098,866.903076 C299.311356,848.749781 151.289786,746.420946 69.160044,602.407271 C23.0663248,511.03932 6.00308403,412.654145 0.0038930506,342.514999 C-0.0136256771,335.357626 0.0661818602,328.17884 0.336748877,320.963071 C0.961583499,304.221007 2.38838654,287.700847 4.53540395,271.418162 C8.22990897,249.309528 26.8328513,247.919709 32.0748439,247.976158 C343.563515,266.357264 454.560491,423.835295 455.994487,425.887792 C532.296947,299.12747 673.409127,216.612708 831.713277,222.531179 C874.55046,224.131223 915.61825,232.16648 954.093269,245.572199 C960.633594,248.443324 971.458222,255.454708 976.680749,271.466826 C986.538147,303.952302 992.952301,337.887517 995.444903,372.843875 C996.629605,389.458176 996.928437,406.303151 996.290045,423.332783 C994.814944,462.783724 988.455569,500.899297 977.815577,537.119803 C952.287497,624.02213 902.118316,700.01562 835.645258,757.37015 L800.236017,785.063366 C719.961313,841.824044 621.08756,873.632214 515.253033,869.672981 C502.837866,869.210415 490.572847,868.207648 478.453022,866.756637 Z M478.453022,866.756637 C478.559841,866.751287 478.666571,866.74561 478.773203,866.739568 C472.318525,865.980423 465.902777,865.129791 459.541533,864.121491 Z" id="Combined-Shape" fill="#D8E986"></path>
                <path d="M642.180109,164.888726 C640.700749,164.888726 639.199978,164.686287 637.710887,164.259998 C629.095566,161.795697 624.108568,152.814429 626.572869,144.199108 L645.866828,76.7169692 C648.327236,68.0997017 657.316289,63.1088108 665.927717,65.5770049 C674.544985,68.0413059 679.533929,77.0225737 677.069628,85.6398412 L657.775669,153.12198 C655.737657,160.24237 649.238209,164.888726 642.180109,164.888726 Z" id="Shape" fill="#F8E71C"></path>
                <path d="M106.476881,616.268478 C58.5826255,521.32476 40.853673,419.093251 34.617006,346.213397 C34.5994872,338.775724 34.6792948,331.314692 34.9634875,323.818624 C35.6155734,306.422527 37.0968792,289.254174 39.3295437,272.334976 C41.6731602,258.329726 49.7668124,252.336375 56.9670095,249.794213 C48.8091219,249.097357 40.5286033,248.476415 32.0767904,247.976158 C26.8347978,247.919709 8.2318555,249.309528 4.53735048,271.418162 C2.39033307,287.700847 0.963530024,304.221007 0.338695402,320.963071 C0.0681283855,328.17884 -0.0116791518,335.357626 0.0058395759,342.514999 C6.00503055,412.654145 23.0682713,511.03932 69.1619905,602.407271 C126.329492,702.655271 215.437527,782.692498 323.162131,828.210046 C232.417067,779.145929 157.302603,705.390139 106.476881,616.268478 Z" id="Shape" fill="#231F20" opacity="0.15"></path>
                <g id="Group" transform="translate(172.294227, 423.342516)" fill="#B8E986">
                    <path d="M224.129277,251.857016 C222.122409,251.857016 220.080504,251.483283 218.104781,250.691047 C77.4644349,194.389749 6.6167535,98.7238702 3.66776767,94.6789907 C-1.60926242,87.43597 -0.0150581976,77.2867871 7.22796245,72.0078105 C14.46709,66.7307804 24.6143264,68.3230381 29.8933031,75.5602191 C30.9346941,76.9695035 98.9832721,168.043529 230.167398,220.560782 C238.486847,223.891287 242.531727,233.335827 239.199276,241.655277 C236.661007,247.999003 230.566436,251.857016 224.129277,251.857016 Z" id="Shape"></path>
                    <path d="M155.969747,218.731048 C148.442533,218.731048 141.695877,213.467644 140.099726,205.808067 L112.352008,72.6053937 C110.524221,63.8324042 116.155518,55.238495 124.928508,53.4107077 C133.709283,51.5907066 142.295407,57.2142182 144.123194,65.9891542 L171.872859,199.191827 C173.700646,207.964817 168.069348,216.558726 159.296359,218.386513 C158.181,218.620096 157.065641,218.731048 155.969747,218.731048 Z" id="Shape"></path>
                    <path d="M324.797726,408.665201 C319.016546,408.665201 313.422232,405.568279 310.492711,400.121901 C306.24734,392.228741 309.208005,382.389056 317.099218,378.147577 C574.957371,239.512152 649.770125,14.1687577 650.496179,11.9068953 C653.236886,3.37332835 662.377769,-1.32558373 670.907443,1.41901694 C679.44101,4.15777804 684.136029,13.2947678 681.397268,21.8302813 C680.606979,24.2926358 661.429811,83.0231971 608.735425,160.062776 C560.305875,230.86958 473.062611,331.142884 332.468982,406.730355 C330.024146,408.040366 327.390497,408.665201 324.797726,408.665201 Z" id="Shape"></path>
                    <path d="M454.54337,321.361595 C449.612821,321.361595 444.744561,319.121144 441.561992,314.86604 C438.809606,311.196839 374.492517,223.511714 394.695503,97.2951207 C396.110627,88.4462166 404.439808,82.4119882 413.284819,83.8387913 C422.133723,85.2539151 428.158219,93.5772573 426.741149,102.426161 C408.784453,214.604414 466.97388,294.655267 467.561731,295.451396 C472.891317,302.636021 471.406118,312.79883 464.231226,318.142042 C461.319224,320.312417 457.914752,321.361595 454.54337,321.361595 Z" id="Shape"></path>
                    <path d="M580.131236,196.694435 C572.40353,196.694435 565.555654,191.154624 564.171675,183.277036 C562.618348,174.451491 568.516319,166.038608 577.343811,164.487228 L663.134968,149.39971 C671.952727,147.852222 680.373396,153.744354 681.924776,162.571847 C683.476157,171.397392 677.578185,179.810275 668.75264,181.363602 L582.961483,196.45112 C582.011579,196.614628 581.067514,196.694435 580.131236,196.694435 Z" id="Shape"></path>
                </g>
                <path d="M431.024937,631.807589 C439.430033,409.985459 618.33712,234.218117 838.531955,222.848463 C836.262307,222.727779 833.992658,222.61488 831.713277,222.531179 C599.973601,213.867195 405.075808,394.713022 396.400145,626.448805 C393.145555,713.514935 416.644008,795.37995 459.543479,864.123438 C470.591957,865.873364 481.778638,867.230092 493.074324,868.22282 C450.807474,799.487118 427.756721,718.17881 431.024937,631.807589 Z" id="Shape" fill="#231F20" opacity="0.15"></path>
                <g id="good-lettuce">
                    <path d="M670.640181,14.3416936 C569.212375,-15.9890898 473.02469,11.3779383 411.882146,38.4236658 L345.145076,74.9117384 L345.14897,74.9390002 C367.168776,95.8079657 402.330754,110.27039 443.558498,135.847871 C502.997175,138.067767 562.944091,162.215946 603.295561,199.80423 C623.270726,218.412407 642.396879,251.10329 655.042494,275.502668 C707.599495,254.664859 778.727675,237.489878 838.855688,239.738983 C867.297612,240.804143 888.094529,228.657031 914.739117,235.077202 C938.947662,42.7991967 813.081532,56.9403208 670.640181,14.3416936 Z" id="Shape" fill="#70C449"></path>
                    <path d="M69.0679607,205.221554 L44.6471624,249.895979 C116.22711,255.065998 232.333489,367.406344 225.399236,314.409259 C232.664526,369.931962 235.984633,326.57195 235.14341,326.312962 C268.876086,230.481629 352.186429,120.106086 459.047137,124.09995 C243.941206,-9.33524496 118.396377,128.14055 69.0679607,205.221554 Z" id="Shape" fill="#6AB742"></path>
                    <path d="M596.723502,190.655924 C592.186347,190.655924 587.676454,188.767065 584.467341,185.071134 C578.584618,178.306294 579.303163,168.053882 586.068003,162.173106 C588.560517,160.00384 648.573641,109.123444 772.036832,115.753922 C780.988463,116.234899 787.858456,123.877961 787.379425,132.833487 C786.896501,141.785118 779.270965,148.604481 770.299861,148.174133 C659.821112,142.273885 607.877503,186.231711 607.365369,186.67569 C604.294514,189.347354 600.501219,190.655924 596.723502,190.655924 Z" id="Shape" fill="#43A838"></path>
                    <path d="M478.954148,453.450664 C526.308025,374.77484 615.070744,300.016936 661.721654,252.731214 C623.525819,179.050154 547.90722,127.423952 459.047137,124.09995 C352.186429,120.102191 259.13386,187.131353 225.399236,282.962686 C369.332201,360.941385 466.3319,538.821226 478.954148,453.450664 Z" id="Shape" fill="#B0E046"></path>
                    <path d="M340.545608,289.889149 C336.935357,289.889149 333.303686,288.691574 330.293196,286.234111 C323.345312,280.567535 322.309361,270.340438 327.979831,263.394501 C349.201253,237.390567 387.952062,205.2605 452.04473,199.866543 C460.998309,199.111 468.832203,205.747319 469.583852,214.681425 C470.335501,223.615531 463.701129,231.465004 454.767023,232.216653 C412.417647,235.778222 378.221519,253.175193 353.134753,283.920746 C349.921746,287.850351 345.254123,289.889149 340.545608,289.889149 Z" id="Shape" fill="#A0C638"></path>
                    <path d="M459.718948,865.455489 C531.657195,762.425073 446.319736,728.312678 465.644511,643.319888 C492.698028,524.34517 512.178585,493.424362 456.184641,427.072852 C456.184641,427.072852 345.740943,267.581146 32.0872271,249.072281 C26.8432106,249.015809 8.2330863,250.406165 4.53715494,272.523335 C2.38930863,288.812305 0.961954738,305.338844 0.336878886,322.087371 C0.0662074111,329.305926 -0.0136309376,336.487483 0.00389455359,343.64762 C6.00540164,413.813845 23.07523,512.237003 69.1867446,603.640229 C151.348194,747.709503 299.426911,850.077844 473.973014,868.238147 C475.635989,868.173887 477.308699,868.168045 478.958043,868.074576 C472.500873,867.315138 466.082649,866.464178 459.718948,865.455489 Z" id="Shape" fill="#4BAA3D"></path>
                    <path d="M642.428035,165.95277 C640.948105,165.95277 639.446754,165.750254 637.957088,165.3238 C629.338441,162.858548 624.349517,153.873812 626.81477,145.255165 L646.116178,77.7469734 C648.577535,69.126379 657.57006,64.1335613 666.184812,66.6027083 C674.805407,69.0679607 679.796277,78.0526958 677.331025,86.6732902 L658.029617,154.181482 C655.990818,161.304621 649.488861,165.95277 642.428035,165.95277 Z" id="Shape" fill="#43A838"></path>
                    <path d="M106.517988,617.506787 C58.6052425,522.526414 40.8694454,420.255436 34.6303706,347.347446 C34.6128451,339.906901 34.6926834,332.442989 34.9769858,324.944026 C35.6293235,307.541214 37.1112012,290.366232 39.3447277,273.440502 C41.6892489,259.429846 49.7860259,253.434181 56.9890027,250.891037 C48.8279657,250.193912 40.5442502,249.572731 32.0891743,249.072281 C26.8451579,249.015809 8.23503357,250.406165 4.53910221,272.523335 C2.39125591,288.812305 0.963902014,305.338844 0.338826163,322.087371 C0.0681546879,329.305926 -0.0116836608,336.487483 0.00584183039,343.64762 C6.00734892,413.813845 23.0771773,512.237003 69.1886919,603.640229 C126.378264,703.926931 215.520701,783.995058 323.286894,829.530179 C232.506797,780.44712 157.363332,706.662855 106.517988,617.506787 Z" id="Shape" fill="#231F20" opacity="0.15"></path>
                    <path d="M977.057816,272.572017 C971.833273,256.553718 961.004466,249.539627 954.461616,246.667394 C915.971743,233.256498 874.888097,225.21814 832.034377,223.617478 C600.205232,214.950149 405.232196,395.865795 396.553183,627.691044 C393.297336,714.790788 416.804862,796.687409 459.720895,865.457436 C477.961037,868.345247 496.532216,870.304208 515.451957,871.009122 C621.327344,874.969883 720.239269,843.149433 800.544964,786.366841 L835.967876,758.662935 C930.182969,677.371917 991.658498,558.652293 996.674683,424.496605 C998.657011,371.616357 991.605921,320.515919 977.057816,272.572017 Z" id="Shape" fill="#43A838"></path>
                    <path d="M431.191343,633.051897 C439.599684,411.144128 618.575842,235.308928 838.855688,223.934884 C836.585163,223.814153 834.314638,223.701211 832.034377,223.617478 C600.205232,214.950149 405.232196,395.865795 396.553183,627.691044 C393.297336,714.790788 416.804862,796.687409 459.720895,865.457436 C470.773638,867.208038 481.964638,868.56529 493.264685,869.558401 C450.981517,800.796163 427.921865,719.456463 431.191343,633.051897 Z" id="Shape" fill="#231F20" opacity="0.15"></path>
                    <g id="Group" transform="translate(171.360358, 424.506342)" fill="#368C2A">
                        <path d="M225.216192,251.95425 C223.20855,251.95425 221.165857,251.580373 219.189371,250.787831 C78.4947277,194.464797 7.61969411,98.7619846 4.66956976,94.7155434 C-0.609497637,87.4697264 0.985322059,77.3166252 8.23113902,72.0356105 C15.4730614,66.7565431 25.6242154,68.3494156 30.90523,75.5893907 C31.9470231,76.9992191 100.021873,168.108406 231.256645,220.645934 C239.579306,223.977724 243.625747,233.425911 240.292009,241.748572 C237.75276,248.094748 231.655837,251.95425 225.216192,251.95425 Z" id="Shape"></path>
                        <path d="M157.030348,218.815494 C149.500229,218.815494 142.750967,213.550057 141.1542,205.887523 L113.39577,72.6334245 C111.567277,63.857048 117.200749,55.2598209 125.977125,53.431328 C134.761291,51.6106242 143.350729,57.2363069 145.179222,66.0146307 L172.9396,199.268729 C174.768092,208.045106 169.134621,216.642333 160.358244,218.470826 C159.242455,218.704499 158.126665,218.815494 157.030348,218.815494 Z" id="Shape"></path>
                        <path d="M325.923507,408.822974 C320.140094,408.822974 314.543621,405.724857 311.612969,400.276376 C307.365959,392.380169 310.327767,382.536685 318.222027,378.293569 C576.179731,239.604621 651.021368,14.1742278 651.747702,11.9114922 C654.489468,3.37463069 663.63388,-1.3260955 672.166846,1.41956478 C680.703708,4.15938324 685.40054,13.2999005 682.660721,21.8387093 C681.870127,24.3020144 662.685556,83.0552499 609.970826,160.124571 C561.522579,230.958712 474.245633,331.270729 333.597724,406.887381 C331.151945,408.197898 328.517279,408.822974 325.923507,408.822974 Z" id="Shape"></path>
                        <path d="M455.719241,321.485663 C450.786789,321.485663 445.91665,319.244347 442.732852,314.9876 C439.979403,311.316983 375.637483,223.598005 395.848269,97.3326834 C397.263939,88.4803631 405.596337,82.443805 414.444762,83.8711589 C423.297083,85.2868291 429.323904,93.6133847 427.906287,102.465705 C409.942658,214.687267 468.154551,294.769025 468.742629,295.565461 C474.074273,302.75286 472.5885,312.919592 465.410838,318.264867 C462.497712,320.436081 459.091925,321.485663 455.719241,321.485663 Z" id="Shape"></path>
                        <path d="M581.355593,196.770373 C573.624904,196.770373 566.774384,191.228423 565.389871,183.347794 C563.835944,174.518841 569.736192,166.102711 578.567093,164.550731 L664.39137,149.457389 C673.212534,147.909304 681.636454,153.803711 683.188433,162.634611 C684.740413,171.463564 678.840164,179.879694 670.011211,181.433621 L584.186934,196.526963 C583.236662,196.690535 582.292233,196.770373 581.355593,196.770373 Z" id="Shape"></path>
                    </g>
                </g>
            </g>
            <g id="lettuce" transform="translate(898.000000, 604.000000)">
                <path d="M147.958865,635.471537 C134.344165,658.229298 127,682.463352 127,707.605389 C127,839.420546 328.870189,946.277844 577.889686,946.277844 C826.909183,946.277844 1028.77937,839.420546 1028.77937,707.605389 C1028.77937,635.842373 968.946087,571.476738 874.245858,527.724085 C874.245858,554.234943 874.245858,605.584033 874.245858,684.975838 C874.245858,773.675076 650.613386,785.237126 511.102362,785.237126 C371.534373,785.237126 147.958865,753.501389 147.958865,684.975838 C147.958865,667.79059 147.958865,651.166661 147.958865,635.471537 Z" id="Combined-Shape" fill-opacity="0.15" fill="#000000"></path>
                <path d="M670.381367,13.3361588 C568.992704,-16.9829192 472.84214,10.3735473 411.723192,37.4088372 L345.011877,73.8828283 L345.01577,73.9100797 C367.027078,94.7709913 402.175486,109.227835 443.387319,134.795445 C502.803058,137.014483 562.726839,161.153344 603.062736,198.727122 C623.030193,217.328117 642.148964,250.006384 654.7897,274.396346 C707.326417,253.566579 778.427147,236.398226 838.531955,238.646462 C866.962904,239.711212 887.751794,227.568787 914.3861,233.986481 C938.585302,41.7826796 812.767746,55.9183463 670.381367,13.3361588 Z" id="Shape" fill="#BCC449"></path>
                <path d="M69.0413059,204.142355 L44.6299321,248.799538 C116.182256,253.967563 232.243827,366.264554 225.31225,313.287922 C232.574736,368.789198 235.893562,325.445919 235.052663,325.187031 C268.772321,229.392681 352.050513,119.059734 458.869981,123.052057 C243.847064,-10.3316423 118.350685,127.091097 69.0413059,204.142355 Z" id="Shape" fill="#D3D13E"></path>
                <path d="M596.493213,189.582346 C591.957809,189.582346 587.449657,187.694216 584.241783,183.999711 C578.36133,177.237482 579.079598,166.989027 585.841827,161.11052 C588.333379,158.942091 648.323343,108.081331 771.738886,114.70925 C780.687063,115.190042 787.554404,122.830154 787.075559,131.782223 C786.592821,140.7304 778.970228,147.547132 770.002586,147.11695 C659.566473,141.218978 607.64291,185.15984 607.130974,185.603648 C604.061304,188.274281 600.269472,189.582346 596.493213,189.582346 Z" id="Shape" fill="#F8E71C"></path>
                <path d="M478.76931,452.275668 C526.104912,373.630206 614.833375,298.901153 661.466281,251.633679 C623.285188,177.981055 547.695771,126.374776 458.869981,123.052057 C352.050513,119.055841 259.033854,186.059135 225.31225,281.853485 C369.189668,359.80209 466.151933,537.613283 478.76931,452.275668 Z" id="Shape" fill="#E0DB46"></path>
                <path d="M340.414184,288.777275 C336.805326,288.777275 333.175057,287.580162 330.165729,285.123647 C323.220526,279.459258 322.184975,269.236108 327.853256,262.292852 C349.066489,236.298953 387.802343,204.181285 451.870276,198.78941 C460.8204,198.034159 468.651271,204.667917 469.40263,213.598575 C470.153989,222.529233 463.522177,230.375676 454.591519,231.127035 C412.258487,234.68723 378.075556,252.077487 352.99847,282.811175 C349.786704,286.739263 345.120882,288.777275 340.414184,288.777275 Z" id="Shape" fill="#A0C638"></path>
                <path d="M478.453022,866.756637 C476.908251,866.834 475.344917,866.842995 473.790098,866.903076 C299.311356,848.749781 151.289786,746.420946 69.160044,602.407271 C23.0663248,511.03932 6.00308403,412.654145 0.0038930506,342.514999 C-0.0136256771,335.357626 0.0661818602,328.17884 0.336748877,320.963071 C0.961583499,304.221007 2.38838654,287.700847 4.53540395,271.418162 C8.22990897,249.309528 26.8328513,247.919709 32.0748439,247.976158 C343.563515,266.357264 454.560491,423.835295 455.994487,425.887792 C532.296947,299.12747 673.409127,216.612708 831.713277,222.531179 C874.55046,224.131223 915.61825,232.16648 954.093269,245.572199 C960.633594,248.443324 971.458222,255.454708 976.680749,271.466826 C986.538147,303.952302 992.952301,337.887517 995.444903,372.843875 C996.629605,389.458176 996.928437,406.303151 996.290045,423.332783 C994.814944,462.783724 988.455569,500.899297 977.815577,537.119803 C952.287497,624.02213 902.118316,700.01562 835.645258,757.37015 L800.236017,785.063366 C719.961313,841.824044 621.08756,873.632214 515.253033,869.672981 C502.837866,869.210415 490.572847,868.207648 478.453022,866.756637 Z M478.453022,866.756637 C478.559841,866.751287 478.666571,866.74561 478.773203,866.739568 C472.318525,865.980423 465.902777,865.129791 459.541533,864.121491 Z" id="Combined-Shape" fill="#D8E986"></path>
                <path d="M642.180109,164.888726 C640.700749,164.888726 639.199978,164.686287 637.710887,164.259998 C629.095566,161.795697 624.108568,152.814429 626.572869,144.199108 L645.866828,76.7169692 C648.327236,68.0997017 657.316289,63.1088108 665.927717,65.5770049 C674.544985,68.0413059 679.533929,77.0225737 677.069628,85.6398412 L657.775669,153.12198 C655.737657,160.24237 649.238209,164.888726 642.180109,164.888726 Z" id="Shape" fill="#F8E71C"></path>
                <path d="M106.476881,616.268478 C58.5826255,521.32476 40.853673,419.093251 34.617006,346.213397 C34.5994872,338.775724 34.6792948,331.314692 34.9634875,323.818624 C35.6155734,306.422527 37.0968792,289.254174 39.3295437,272.334976 C41.6731602,258.329726 49.7668124,252.336375 56.9670095,249.794213 C48.8091219,249.097357 40.5286033,248.476415 32.0767904,247.976158 C26.8347978,247.919709 8.2318555,249.309528 4.53735048,271.418162 C2.39033307,287.700847 0.963530024,304.221007 0.338695402,320.963071 C0.0681283855,328.17884 -0.0116791518,335.357626 0.0058395759,342.514999 C6.00503055,412.654145 23.0682713,511.03932 69.1619905,602.407271 C126.329492,702.655271 215.437527,782.692498 323.162131,828.210046 C232.417067,779.145929 157.302603,705.390139 106.476881,616.268478 Z" id="Shape" fill="#231F20" opacity="0.15"></path>
                <g id="Group" transform="translate(172.294227, 423.342516)" fill="#B8E986">
                    <path d="M224.129277,251.857016 C222.122409,251.857016 220.080504,251.483283 218.104781,250.691047 C77.4644349,194.389749 6.6167535,98.7238702 3.66776767,94.6789907 C-1.60926242,87.43597 -0.0150581976,77.2867871 7.22796245,72.0078105 C14.46709,66.7307804 24.6143264,68.3230381 29.8933031,75.5602191 C30.9346941,76.9695035 98.9832721,168.043529 230.167398,220.560782 C238.486847,223.891287 242.531727,233.335827 239.199276,241.655277 C236.661007,247.999003 230.566436,251.857016 224.129277,251.857016 Z" id="Shape"></path>
                    <path d="M155.969747,218.731048 C148.442533,218.731048 141.695877,213.467644 140.099726,205.808067 L112.352008,72.6053937 C110.524221,63.8324042 116.155518,55.238495 124.928508,53.4107077 C133.709283,51.5907066 142.295407,57.2142182 144.123194,65.9891542 L171.872859,199.191827 C173.700646,207.964817 168.069348,216.558726 159.296359,218.386513 C158.181,218.620096 157.065641,218.731048 155.969747,218.731048 Z" id="Shape"></path>
                    <path d="M324.797726,408.665201 C319.016546,408.665201 313.422232,405.568279 310.492711,400.121901 C306.24734,392.228741 309.208005,382.389056 317.099218,378.147577 C574.957371,239.512152 649.770125,14.1687577 650.496179,11.9068953 C653.236886,3.37332835 662.377769,-1.32558373 670.907443,1.41901694 C679.44101,4.15777804 684.136029,13.2947678 681.397268,21.8302813 C680.606979,24.2926358 661.429811,83.0231971 608.735425,160.062776 C560.305875,230.86958 473.062611,331.142884 332.468982,406.730355 C330.024146,408.040366 327.390497,408.665201 324.797726,408.665201 Z" id="Shape"></path>
                    <path d="M454.54337,321.361595 C449.612821,321.361595 444.744561,319.121144 441.561992,314.86604 C438.809606,311.196839 374.492517,223.511714 394.695503,97.2951207 C396.110627,88.4462166 404.439808,82.4119882 413.284819,83.8387913 C422.133723,85.2539151 428.158219,93.5772573 426.741149,102.426161 C408.784453,214.604414 466.97388,294.655267 467.561731,295.451396 C472.891317,302.636021 471.406118,312.79883 464.231226,318.142042 C461.319224,320.312417 457.914752,321.361595 454.54337,321.361595 Z" id="Shape"></path>
                    <path d="M580.131236,196.694435 C572.40353,196.694435 565.555654,191.154624 564.171675,183.277036 C562.618348,174.451491 568.516319,166.038608 577.343811,164.487228 L663.134968,149.39971 C671.952727,147.852222 680.373396,153.744354 681.924776,162.571847 C683.476157,171.397392 677.578185,179.810275 668.75264,181.363602 L582.961483,196.45112 C582.011579,196.614628 581.067514,196.694435 580.131236,196.694435 Z" id="Shape"></path>
                </g>
                <path d="M431.024937,631.807589 C439.430033,409.985459 618.33712,234.218117 838.531955,222.848463 C836.262307,222.727779 833.992658,222.61488 831.713277,222.531179 C599.973601,213.867195 405.075808,394.713022 396.400145,626.448805 C393.145555,713.514935 416.644008,795.37995 459.543479,864.123438 C470.591957,865.873364 481.778638,867.230092 493.074324,868.22282 C450.807474,799.487118 427.756721,718.17881 431.024937,631.807589 Z" id="Shape" fill="#231F20" opacity="0.15"></path>
                <g id="good-lettuce" transform="translate(1.000000, 1.000000)">
                    <path d="M670.636334,14.3416113 C569.209109,-15.988998 473.021977,11.377873 411.879783,38.4234453 L345.143096,74.9113086 L345.14699,74.9385703 C367.16667,95.807416 402.328445,110.269758 443.555953,135.847092 C502.994289,138.066975 562.940861,162.215016 603.2921,199.803084 C623.26715,218.411154 642.393193,251.10185 655.038736,275.501088 C707.595436,254.663398 778.723207,237.488516 838.850875,239.737607 C867.292637,240.802762 888.089434,228.655719 914.733869,235.075854 C938.942275,42.7989512 813.076867,56.9399941 670.636334,14.3416113 Z" id="Shape" fill="#70C449"></path>
                    <path d="M69.0675645,205.220377 L44.6469063,249.894545 C116.226443,255.064535 232.332156,367.404236 225.397943,314.407455 C232.663191,369.92984 235.983279,326.570076 235.142061,326.31109 C268.874543,230.480307 352.184408,120.105396 459.044504,124.099238 C243.939807,-9.33519141 118.395697,128.139814 69.0675645,205.220377 Z" id="Shape" fill="#6AB742"></path>
                    <path d="M596.720078,190.65483 C592.182949,190.65483 587.673082,188.765982 584.463988,185.070072 C578.581299,178.305271 579.29984,168.052918 586.064641,162.172176 C588.557141,160.002922 648.56992,109.122818 772.032402,115.753258 C780.983982,116.234232 787.853936,123.87725 787.374908,132.832725 C786.891986,141.784305 779.266494,148.603629 770.295441,148.173283 C659.817326,142.273068 607.874016,186.230643 607.361885,186.674619 C604.291047,189.346268 600.497773,190.65483 596.720078,190.65483 Z" id="Shape" fill="#43A838"></path>
                    <path d="M478.9514,453.448063 C526.305006,374.772689 615.067215,300.015215 661.717857,252.729764 C623.522242,179.049127 547.904076,127.423221 459.044504,124.099238 C352.184408,120.101502 259.132373,187.130279 225.397943,282.961062 C369.330082,360.939314 466.329225,538.818135 478.9514,453.448063 Z" id="Shape" fill="#B0E046"></path>
                    <path d="M340.543654,289.887486 C336.933424,289.887486 333.301773,288.689918 330.291301,286.232469 C323.343457,280.565926 322.307512,270.338887 327.977949,263.39299 C349.19925,237.389205 387.949836,205.259322 452.042137,199.865396 C460.995664,199.109857 468.829514,205.746139 469.581158,214.680193 C470.332803,223.614248 463.698469,231.463676 454.764414,232.21532 C412.415281,235.776869 378.21935,253.17374 353.132727,283.919117 C349.919738,287.848699 345.252143,289.887486 340.543654,289.887486 Z" id="Shape" fill="#A0C638"></path>
                    <path d="M459.716311,865.450523 C531.654145,762.420699 446.317176,728.3085 465.64184,643.316197 C492.695201,524.342162 512.175646,493.421531 456.182023,427.070402 C456.182023,427.070402 345.738959,267.579611 32.087043,249.070852 C26.8430566,249.014381 8.23303906,250.404729 4.53712891,272.521771 C2.38929492,288.810648 0.961949219,305.337092 0.336876953,322.085523 C0.0662070313,329.304037 -0.0136308594,336.485553 0.00389453125,343.645648 C6.00536719,413.811471 23.0750977,512.234064 69.1863477,603.636766 C151.347326,747.705213 299.425193,850.072967 473.970295,868.233166 C475.63326,868.168906 477.305961,868.163064 478.955295,868.069596 C472.498162,867.310162 466.079975,866.459207 459.716311,865.450523 Z" id="Shape" fill="#4BAA3D"></path>
                    <path d="M642.42435,165.951818 C640.944428,165.951818 639.443086,165.749303 637.953428,165.322852 C629.33483,162.857613 624.345936,153.87293 626.811174,145.254332 L646.112471,77.7465273 C648.573814,69.1259824 657.566287,64.1331934 666.18099,66.6023262 C674.801535,69.0675645 679.792377,78.052248 677.327139,86.672793 L658.025842,154.180598 C655.987055,161.303695 649.485135,165.951818 642.42435,165.951818 Z" id="Shape" fill="#43A838"></path>
                    <path d="M106.517377,617.503244 C58.6049063,522.523416 40.8692109,420.253025 34.6301719,347.345453 C34.6126465,339.904951 34.6924844,332.441082 34.9767852,324.942162 C35.6291191,307.539449 37.1109883,290.364566 39.344502,273.438934 C41.6890098,259.428357 49.7857402,253.432727 56.9886758,250.889598 C48.8276855,250.192477 40.5440176,249.571299 32.0889902,249.070852 C26.8450039,249.014381 8.23498633,250.404729 4.53907617,272.521771 C2.39124219,288.810648 0.963896484,305.337092 0.338824219,322.085523 C0.0681542969,329.304037 -0.0116835938,336.485553 0.00584179687,343.645648 C6.00731445,413.811471 23.0770449,512.234064 69.1882949,603.636766 C126.377539,703.922893 215.519465,783.990561 323.285039,829.52542 C232.505463,780.442643 157.36243,706.658801 106.517377,617.503244 Z" id="Shape" fill="#231F20" opacity="0.15"></path>
                    <path d="M977.052211,272.570453 C971.827697,256.552246 960.998953,249.538195 954.456141,246.665979 C915.966488,233.25516 874.883078,225.216848 832.029604,223.616195 C600.201789,214.948916 405.229871,395.863523 396.550908,627.687443 C393.29508,714.786688 416.802471,796.682838 459.718258,865.452471 C477.958295,868.340266 496.529367,870.299215 515.449,871.004125 C621.323779,874.964863 720.235137,843.144596 800.540371,786.36233 L835.96308,758.658582 C930.177633,677.368031 991.652809,558.649088 996.668965,424.49417 C998.651281,371.614225 991.600232,320.51408 977.052211,272.570453 Z" id="Shape" fill="#43A838"></path>
                    <path d="M431.188869,633.048266 C439.597162,411.14177 618.572293,235.307578 838.850875,223.9336 C836.580363,223.812869 834.309852,223.699928 832.029604,223.616195 C600.201789,214.948916 405.229871,395.863523 396.550908,627.687443 C393.29508,714.786687 416.802471,796.682838 459.718258,865.452471 C470.770938,867.203062 481.961873,868.560307 493.261855,869.553412 C450.97893,800.791568 427.91941,719.452336 431.188869,633.048266 Z" id="Shape" fill="#231F20" opacity="0.15"></path>
                    <g id="Group" transform="translate(171.359375, 424.503906)" fill="#368C2A">
                        <path d="M225.2149,251.952805 C223.20727,251.952805 221.164588,251.57893 219.188113,250.786393 C78.4942773,194.463682 7.61965039,98.761418 4.66954297,94.715 C-0.609494141,87.4692246 0.985316406,77.3161816 8.2310918,72.0351973 C15.4729727,66.7561602 25.6240684,68.3490234 30.9050527,75.588957 C31.9468398,76.9987773 100.021299,168.107441 231.255318,220.644668 C239.577932,223.976439 243.62435,233.424572 240.290631,241.747186 C237.751396,248.093324 231.654508,251.952805 225.2149,251.952805 Z" id="Shape"></path>
                        <path d="M157.029447,218.814238 C149.499371,218.814238 142.750148,213.548832 141.153391,205.886342 L113.395119,72.6330078 C111.566637,63.8566816 117.200076,55.2595039 125.976402,53.4310215 C134.760518,51.6103281 143.349906,57.2359785 145.178389,66.014252 L172.938607,199.267586 C174.76709,208.043912 169.13365,216.64109 160.357324,218.469572 C159.241541,218.703244 158.125758,218.814238 157.029447,218.814238 Z" id="Shape"></path>
                        <path d="M325.921637,408.820629 C320.138258,408.820629 314.541816,405.722529 311.611182,400.27408 C307.364195,392.377918 310.325986,382.53449 318.220201,378.291398 C576.176426,239.603246 651.017633,14.1741465 651.743963,11.9114238 C654.485713,3.37461133 663.630072,-1.32608789 672.16299,1.41955664 C680.699803,4.15935938 685.396607,13.2998242 682.656805,21.838584 C681.866215,24.301875 662.681754,83.0547734 609.967326,160.123652 C561.519357,230.957387 474.242912,331.268828 333.595811,406.885047 C331.150045,408.195557 328.515395,408.820629 325.921637,408.820629 Z" id="Shape"></path>
                        <path d="M455.716627,321.483818 C450.784203,321.483818 445.914092,319.242516 442.730313,314.985793 C439.976879,311.315197 375.635328,223.596723 395.845998,97.332125 C397.26166,88.4798555 405.59401,82.443332 414.442385,83.8706777 C423.294654,85.2863398 429.321441,93.6128477 427.903832,102.465117 C409.940307,214.686035 468.151865,294.767334 468.739939,295.563766 C474.071553,302.751123 472.585789,312.917797 465.408168,318.263041 C462.495059,320.434242 459.089291,321.483818 455.716627,321.483818 Z" id="Shape"></path>
                        <path d="M581.352258,196.769244 C573.621613,196.769244 566.771133,191.227326 565.386627,183.346742 C563.832709,174.51784 569.732924,166.101758 578.563773,164.549787 L664.387559,149.456531 C673.208672,147.908455 681.632543,153.802828 683.184514,162.633678 C684.736484,171.46258 678.83627,179.878662 670.007367,181.43258 L584.183582,196.525836 C583.233316,196.689406 582.288893,196.769244 581.352258,196.769244 Z" id="Shape"></path>
                    </g>
                </g>
            </g>
        </g>
    </g>
</svg>
