<?xml version="1.0" encoding="UTF-8"?>
<svg width="1029px" height="947px" viewBox="0 0 1029 947" version="1.1" xmlns="http://www.w3.org/2000/svg" xmlns:xlink="http://www.w3.org/1999/xlink">
    <!-- Generator: Sketch 45.2 (43514) - http://www.bohemiancoding.com/sketch -->
    <title>lettuce</title>
    <desc>Created with Sketch.</desc>
    <defs></defs>
    <g id="Page-1" stroke="none" stroke-width="1" fill="none" fill-rule="evenodd">
        <g id="lettuce" fill-rule="nonzero">
            <path d="M147.958865,635.471537 C134.344165,658.229298 127,682.463352 127,707.605389 C127,839.420546 328.870189,946.277844 577.889686,946.277844 C826.909183,946.277844 1028.77937,839.420546 1028.77937,707.605389 C1028.77937,635.842373 968.946087,571.476738 874.245858,527.724085 C874.245858,554.234943 874.245858,605.584033 874.245858,684.975838 C874.245858,773.675076 650.613386,785.237126 511.102362,785.237126 C371.534373,785.237126 147.958865,753.501389 147.958865,684.975838 C147.958865,667.79059 147.958865,651.166661 147.958865,635.471537 Z" id="Combined-Shape" fill-opacity="0.15" fill="#000000"></path>
            <path d="M670.381367,13.3361588 C568.992704,-16.9829192 472.84214,10.3735473 411.723192,37.4088372 L345.011877,73.8828283 L345.01577,73.9100797 C367.027078,94.7709913 402.175486,109.227835 443.387319,134.795445 C502.803058,137.014483 562.726839,161.153344 603.062736,198.727122 C623.030193,217.328117 642.148964,250.006384 654.7897,274.396346 C707.326417,253.566579 778.427147,236.398226 838.531955,238.646462 C866.962904,239.711212 887.751794,227.568787 914.3861,233.986481 C938.585302,41.7826796 812.767746,55.9183463 670.381367,13.3361588 Z" id="Shape" fill="#BCC449"></path>
            <path d="M69.0413059,204.142355 L44.6299321,248.799538 C116.182256,253.967563 232.243827,366.264554 225.31225,313.287922 C232.574736,368.789198 235.893562,325.445919 235.052663,325.187031 C268.772321,229.392681 352.050513,119.059734 458.869981,123.052057 C243.847064,-10.3316423 118.350685,127.091097 69.0413059,204.142355 Z" id="Shape" fill="#D3D13E"></path>
            <path d="M596.493213,189.582346 C591.957809,189.582346 587.449657,187.694216 584.241783,183.999711 C578.36133,177.237482 579.079598,166.989027 585.841827,161.11052 C588.333379,158.942091 648.323343,108.081331 771.738886,114.70925 C780.687063,115.190042 787.554404,122.830154 787.075559,131.782223 C786.592821,140.7304 778.970228,147.547132 770.002586,147.11695 C659.566473,141.218978 607.64291,185.15984 607.130974,185.603648 C604.061304,188.274281 600.269472,189.582346 596.493213,189.582346 Z" id="Shape" fill="#F8E71C"></path>
            <path d="M478.76931,452.275668 C526.104912,373.630206 614.833375,298.901153 661.466281,251.633679 C623.285188,177.981055 547.695771,126.374776 458.869981,123.052057 C352.050513,119.055841 259.033854,186.059135 225.31225,281.853485 C369.189668,359.80209 466.151933,537.613283 478.76931,452.275668 Z" id="Shape" fill="#E0DB46"></path>
            <path d="M340.414184,288.777275 C336.805326,288.777275 333.175057,287.580162 330.165729,285.123647 C323.220526,279.459258 322.184975,269.236108 327.853256,262.292852 C349.066489,236.298953 387.802343,204.181285 451.870276,198.78941 C460.8204,198.034159 468.651271,204.667917 469.40263,213.598575 C470.153989,222.529233 463.522177,230.375676 454.591519,231.127035 C412.258487,234.68723 378.075556,252.077487 352.99847,282.811175 C349.786704,286.739263 345.120882,288.777275 340.414184,288.777275 Z" id="Shape" fill="#A0C638"></path>
            <path d="M478.453022,866.756637 C476.908251,866.834 475.344917,866.842995 473.790098,866.903076 C299.311356,848.749781 151.289786,746.420946 69.160044,602.407271 C23.0663248,511.03932 6.00308403,412.654145 0.0038930506,342.514999 C-0.0136256771,335.357626 0.0661818602,328.17884 0.336748877,320.963071 C0.961583499,304.221007 2.38838654,287.700847 4.53540395,271.418162 C8.22990897,249.309528 26.8328513,247.919709 32.0748439,247.976158 C343.563515,266.357264 454.560491,423.835295 455.994487,425.887792 C532.296947,299.12747 673.409127,216.612708 831.713277,222.531179 C874.55046,224.131223 915.61825,232.16648 954.093269,245.572199 C960.633594,248.443324 971.458222,255.454708 976.680749,271.466826 C986.538147,303.952302 992.952301,337.887517 995.444903,372.843875 C996.629605,389.458176 996.928437,406.303151 996.290045,423.332783 C994.814944,462.783724 988.455569,500.899297 977.815577,537.119803 C952.287497,624.02213 902.118316,700.01562 835.645258,757.37015 L800.236017,785.063366 C719.961313,841.824044 621.08756,873.632214 515.253033,869.672981 C502.837866,869.210415 490.572847,868.207648 478.453022,866.756637 Z M478.453022,866.756637 C478.559841,866.751287 478.666571,866.74561 478.773203,866.739568 C472.318525,865.980423 465.902777,865.129791 459.541533,864.121491 Z" id="Combined-Shape" fill="#D8E986"></path>
            <path d="M642.180109,164.888726 C640.700749,164.888726 639.199978,164.686287 637.710887,164.259998 C629.095566,161.795697 624.108568,152.814429 626.572869,144.199108 L645.866828,76.7169692 C648.327236,68.0997017 657.316289,63.1088108 665.927717,65.5770049 C674.544985,68.0413059 679.533929,77.0225737 677.069628,85.6398412 L657.775669,153.12198 C655.737657,160.24237 649.238209,164.888726 642.180109,164.888726 Z" id="Shape" fill="#F8E71C"></path>
            <path d="M106.476881,616.268478 C58.5826255,521.32476 40.853673,419.093251 34.617006,346.213397 C34.5994872,338.775724 34.6792948,331.314692 34.9634875,323.818624 C35.6155734,306.422527 37.0968792,289.254174 39.3295437,272.334976 C41.6731602,258.329726 49.7668124,252.336375 56.9670095,249.794213 C48.8091219,249.097357 40.5286033,248.476415 32.0767904,247.976158 C26.8347978,247.919709 8.2318555,249.309528 4.53735048,271.418162 C2.39033307,287.700847 0.963530024,304.221007 0.338695402,320.963071 C0.0681283855,328.17884 -0.0116791518,335.357626 0.0058395759,342.514999 C6.00503055,412.654145 23.0682713,511.03932 69.1619905,602.407271 C126.329492,702.655271 215.437527,782.692498 323.162131,828.210046 C232.417067,779.145929 157.302603,705.390139 106.476881,616.268478 Z" id="Shape" fill="#231F20" opacity="0.15"></path>
            <g id="Group" transform="translate(172.294227, 423.342516)" fill="#B8E986">
                <path d="M224.129277,251.857016 C222.122409,251.857016 220.080504,251.483283 218.104781,250.691047 C77.4644349,194.389749 6.6167535,98.7238702 3.66776767,94.6789907 C-1.60926242,87.43597 -0.0150581976,77.2867871 7.22796245,72.0078105 C14.46709,66.7307804 24.6143264,68.3230381 29.8933031,75.5602191 C30.9346941,76.9695035 98.9832721,168.043529 230.167398,220.560782 C238.486847,223.891287 242.531727,233.335827 239.199276,241.655277 C236.661007,247.999003 230.566436,251.857016 224.129277,251.857016 Z" id="Shape"></path>
                <path d="M155.969747,218.731048 C148.442533,218.731048 141.695877,213.467644 140.099726,205.808067 L112.352008,72.6053937 C110.524221,63.8324042 116.155518,55.238495 124.928508,53.4107077 C133.709283,51.5907066 142.295407,57.2142182 144.123194,65.9891542 L171.872859,199.191827 C173.700646,207.964817 168.069348,216.558726 159.296359,218.386513 C158.181,218.620096 157.065641,218.731048 155.969747,218.731048 Z" id="Shape"></path>
                <path d="M324.797726,408.665201 C319.016546,408.665201 313.422232,405.568279 310.492711,400.121901 C306.24734,392.228741 309.208005,382.389056 317.099218,378.147577 C574.957371,239.512152 649.770125,14.1687577 650.496179,11.9068953 C653.236886,3.37332835 662.377769,-1.32558373 670.907443,1.41901694 C679.44101,4.15777804 684.136029,13.2947678 681.397268,21.8302813 C680.606979,24.2926358 661.429811,83.0231971 608.735425,160.062776 C560.305875,230.86958 473.062611,331.142884 332.468982,406.730355 C330.024146,408.040366 327.390497,408.665201 324.797726,408.665201 Z" id="Shape"></path>
                <path d="M454.54337,321.361595 C449.612821,321.361595 444.744561,319.121144 441.561992,314.86604 C438.809606,311.196839 374.492517,223.511714 394.695503,97.2951207 C396.110627,88.4462166 404.439808,82.4119882 413.284819,83.8387913 C422.133723,85.2539151 428.158219,93.5772573 426.741149,102.426161 C408.784453,214.604414 466.97388,294.655267 467.561731,295.451396 C472.891317,302.636021 471.406118,312.79883 464.231226,318.142042 C461.319224,320.312417 457.914752,321.361595 454.54337,321.361595 Z" id="Shape"></path>
                <path d="M580.131236,196.694435 C572.40353,196.694435 565.555654,191.154624 564.171675,183.277036 C562.618348,174.451491 568.516319,166.038608 577.343811,164.487228 L663.134968,149.39971 C671.952727,147.852222 680.373396,153.744354 681.924776,162.571847 C683.476157,171.397392 677.578185,179.810275 668.75264,181.363602 L582.961483,196.45112 C582.011579,196.614628 581.067514,196.694435 580.131236,196.694435 Z" id="Shape"></path>
            </g>
            <path d="M431.024937,631.807589 C439.430033,409.985459 618.33712,234.218117 838.531955,222.848463 C836.262307,222.727779 833.992658,222.61488 831.713277,222.531179 C599.973601,213.867195 405.075808,394.713022 396.400145,626.448805 C393.145555,713.514935 416.644008,795.37995 459.543479,864.123438 C470.591957,865.873364 481.778638,867.230092 493.074324,868.22282 C450.807474,799.487118 427.756721,718.17881 431.024937,631.807589 Z" id="Shape" fill="#231F20" opacity="0.15"></path>
        </g>
    </g>
</svg>